<?xml version="1.0" standalone="no"?>
<!DOCTYPE svg PUBLIC "-//W3C//DTD SVG 20010904//EN"
 "http://www.w3.org/TR/2001/REC-SVG-20010904/DTD/svg10.dtd">
<svg version="1.0" xmlns="http://www.w3.org/2000/svg"
 width="360.000000pt" height="335.000000pt" viewBox="0 0 360.000000 335.000000"
 preserveAspectRatio="xMidYMid meet">
<metadata>
Created by potrace 1.16, written by Peter Selinger 2001-2019
</metadata>
<g transform="translate(0.000000,335.000000) scale(0.100000,-0.100000)"
fill="#000000" stroke="none">
<path d="M890 3340 c-95 -14 -232 -55 -327 -100 -360 -169 -582 -522 -560
-890 14 -220 82 -375 263 -597 l26 -33 -72 -292 c-40 -161 -79 -307 -87 -325
-40 -96 4 -222 110 -318 61 -55 198 -132 276 -156 36 -11 40 -16 57 -72 38
-127 153 -254 288 -321 100 -49 142 -53 244 -22 97 29 140 53 201 110 45 43
91 125 91 164 0 40 39 7 67 -56 99 -225 209 -422 236 -422 14 0 67 34 159 101
47 34 60 39 72 30 12 -10 22 -2 56 43 28 36 84 86 173 150 l131 95 15 -62 c41
-163 181 -297 308 -297 61 0 102 14 239 80 167 80 261 193 300 356 19 81 14
239 -10 319 -8 27 -14 50 -13 50 1 1 25 8 52 15 99 26 170 67 233 135 141 154
209 372 168 535 -28 109 -44 126 -231 231 l-167 94 7 65 c13 133 -29 345 -95
488 -119 254 -335 434 -612 509 -92 26 -346 25 -446 -1 l-73 -18 -75 76 c-155
158 -352 267 -574 317 -99 23 -332 33 -430 19z m455 -64 c454 -121 775 -510
775 -940 0 -231 -84 -437 -249 -610 -60 -61 -178 -156 -196 -156 -4 0 -25 16
-47 35 -22 19 -60 42 -84 52 -24 10 -43 20 -41 23 59 102 97 238 97 350 0 243
-180 473 -434 557 -109 36 -282 44 -389 17 -135 -33 -237 -92 -325 -189 -110
-120 -167 -314 -143 -486 12 -81 7 -159 -8 -159 -15 0 -112 139 -149 215 -130
262 -133 535 -7 790 128 261 377 448 687 515 138 29 373 23 513 -14z m1160
-371 c297 -87 523 -309 613 -606 67 -218 52 -484 -40 -694 -30 -69 -113 -202
-162 -260 l-26 -30 -21 22 -22 21 47 54 c50 56 121 190 132 248 9 50 -10 27
-30 -36 -20 -60 -69 -144 -122 -209 l-37 -46 -41 39 c-56 53 -126 99 -199 130
-55 23 -75 26 -182 27 -107 0 -130 -3 -205 -29 -232 -79 -293 -149 -294 -336
-1 -98 19 -165 62 -213 16 -19 16 -19 -18 -13 -68 13 -318 79 -332 87 -10 6
-4 17 24 46 20 21 49 63 64 93 26 49 29 65 29 150 0 83 -4 102 -27 146 l-26
51 67 43 c146 96 289 271 351 431 50 130 63 215 57 364 -7 176 -49 312 -141
455 l-35 55 42 13 c129 40 329 38 472 -3z m-1370 -333 c177 -56 313 -167 389
-318 36 -72 32 -80 -6 -14 -123 216 -365 342 -628 327 -149 -8 -271 -55 -400
-155 -37 -28 -34 -24 15 23 69 66 188 128 285 150 86 20 263 13 345 -13z m-39
-47 c210 -54 382 -206 445 -393 32 -92 32 -221 1 -313 -25 -72 -57 -126 -47
-79 40 202 43 256 20 345 -35 132 -143 259 -280 325 -109 54 -179 70 -303 70
-174 0 -302 -47 -418 -153 -83 -76 -128 -165 -150 -297 -23 -132 -33 -143 -34
-34 0 144 41 254 134 352 156 167 401 236 632 177z m-41 -90 c169 -30 322
-140 393 -283 31 -64 38 -88 40 -153 3 -45 -3 -108 -12 -154 -9 -42 -16 -95
-16 -117 0 -34 -3 -39 -17 -33 -39 15 -141 26 -188 20 -71 -10 -191 -42 -234
-64 -67 -35 -159 -109 -212 -173 l-52 -63 6 85 c4 54 3 78 -3 65 -5 -11 -9
-39 -9 -61 -1 -23 -4 -56 -7 -73 -6 -29 -9 -31 -54 -31 -26 0 -71 -5 -100 -10
-29 -6 -55 -9 -56 -7 -2 1 6 63 16 137 20 137 24 177 15 169 -2 -3 -14 -72
-25 -154 -12 -83 -23 -152 -26 -154 -7 -7 -134 -49 -134 -44 0 2 25 102 55
223 59 235 60 239 46 224 -7 -7 -121 -438 -121 -458 0 -3 -19 -15 -43 -27 -23
-12 -57 -33 -76 -48 -30 -23 -33 -23 -28 -6 3 11 18 70 32 130 15 61 51 209
82 330 30 121 63 265 73 321 28 156 87 250 203 325 136 88 279 115 452 84z
m2294 -670 c82 -47 159 -97 171 -112 49 -62 66 -227 34 -334 -36 -120 -122
-260 -196 -320 l-39 -31 -74 71 c-67 64 -95 83 -95 65 0 -3 33 -37 73 -75 81
-77 81 -78 -13 -104 -30 -9 -62 -18 -71 -21 -12 -3 -21 8 -34 43 -23 65 -88
182 -146 269 l-48 72 59 73 c83 103 163 265 192 390 13 54 26 99 30 99 4 0 74
-38 157 -85z m-1909 -92 c79 -21 146 -58 201 -110 63 -59 84 -114 84 -218 0
-67 -4 -89 -27 -135 -33 -68 -99 -134 -133 -135 -14 0 -25 -4 -26 -10 -1 -10
107 -41 366 -106 72 -18 133 -35 138 -39 8 -7 -367 -121 -503 -152 -120 -28
-173 -53 -166 -78 3 -11 9 -29 12 -40 6 -23 1 -25 -26 -8 -29 19 -34 3 -9 -31
33 -45 37 -124 9 -183 -47 -101 -181 -190 -289 -192 -104 -2 -275 103 -350
215 -65 97 -83 157 -89 290 -5 136 10 224 64 381 151 433 428 638 744 551z
m-535 -144 c-109 -116 -182 -248 -243 -439 -132 -418 -26 -714 308 -858 l55
-23 -43 6 c-87 11 -231 102 -300 188 -81 101 -112 199 -112 351 1 214 88 484
214 660 39 55 168 186 183 186 3 0 -25 -32 -62 -71z m1636 5 c99 -29 170 -74
264 -169 102 -102 167 -194 241 -341 75 -149 98 -241 98 -389 -1 -96 -5 -131
-21 -176 -46 -125 -126 -212 -254 -279 -73 -38 -94 -44 -161 -48 -69 -4 -84
-2 -130 21 -81 40 -124 81 -158 151 -39 78 -51 174 -26 195 18 16 21 31 5 31
-12 0 -45 -23 -397 -282 -133 -99 -247 -176 -253 -172 -6 3 -24 27 -40 52
l-29 46 40 23 c22 13 40 27 40 30 0 3 -16 -4 -36 -16 -19 -12 -39 -21 -43 -21
-13 0 -161 347 -161 377 0 7 5 13 11 13 20 0 183 54 174 57 -6 1 -50 -10 -100
-27 l-90 -29 -13 31 c-16 37 -12 41 52 58 28 8 45 15 40 17 -5 2 -32 -3 -59
-11 -27 -9 -50 -14 -52 -12 -2 1 -6 17 -9 34 -6 28 -4 32 15 32 20 0 437 118
625 177 93 29 123 53 67 53 -181 0 -252 276 -120 462 24 33 133 90 216 113 68
19 199 18 264 -1z m-529 -155 c-35 -67 -37 -77 -37 -163 0 -135 38 -213 128
-259 39 -20 21 -28 -27 -12 -90 31 -141 119 -141 245 0 99 19 160 67 215 22
25 41 45 43 45 2 0 -13 -32 -33 -71z m-1282 -3 c0 -2 -20 -43 -44 -92 -91
-184 -136 -360 -136 -529 0 -125 11 -121 -135 -50 -161 78 -265 201 -265 314
0 185 233 334 563 360 9 0 17 -1 17 -3z m752 -782 c54 -161 155 -394 207 -478
32 -53 39 -71 29 -78 -22 -13 -53 36 -148 227 -85 174 -147 319 -168 398 -10
35 -9 39 11 46 12 5 23 7 25 6 2 -2 22 -56 44 -121z m881 -179 c16 -154 145
-289 289 -303 64 -6 43 -22 -30 -22 -60 0 -111 22 -168 73 -86 74 -152 224
-126 282 18 39 29 30 35 -30z"/>
<path d="M1489 1380 c-49 -26 -152 -128 -168 -168 -17 -40 -10 -57 31 -82 60
-37 104 -45 142 -27 105 50 173 166 142 241 -24 58 -79 72 -147 36z m91 -37
c17 -21 20 -35 15 -63 -10 -50 -33 -97 -70 -136 -43 -45 -92 -46 -158 -4 -26
16 -47 34 -47 39 0 40 170 191 215 191 14 0 32 -11 45 -27z"/>
<path d="M1135 726 c-20 -46 -38 -209 -30 -263 5 -35 13 -48 38 -64 18 -10 43
-19 55 -19 83 0 147 216 90 300 -22 31 -97 79 -126 80 -7 0 -19 -15 -27 -34z
m104 -32 c37 -47 26 -174 -22 -245 -27 -40 -51 -47 -78 -23 -16 14 -19 31 -19
94 0 80 15 182 31 213 9 16 12 16 39 2 15 -8 38 -27 49 -41z"/>
<path d="M2155 1217 c-19 -19 -37 -46 -41 -61 -16 -63 47 -166 110 -182 15 -4
46 -1 68 5 48 15 138 95 138 124 0 43 -148 147 -210 147 -23 0 -41 -9 -65 -33z
m91 -22 c53 -22 132 -83 140 -108 5 -17 -1 -28 -31 -54 -54 -46 -100 -57 -145
-35 -91 45 -110 175 -30 205 23 9 28 8 66 -8z"/>
<path d="M2555 606 c-56 -18 -97 -40 -119 -65 -42 -46 -8 -193 57 -247 27 -22
38 -25 80 -21 36 3 56 11 75 31 26 26 27 30 27 139 -1 166 -22 195 -120 163z
m52 -66 c15 -61 16 -189 0 -220 -18 -36 -59 -48 -91 -27 -64 42 -106 180 -72
233 21 31 91 65 126 62 21 -3 27 -11 37 -48z"/>
</g>
</svg>
