<?xml version="1.0" standalone="no"?>
<!DOCTYPE svg PUBLIC "-//W3C//DTD SVG 20010904//EN"
 "http://www.w3.org/TR/2001/REC-SVG-20010904/DTD/svg10.dtd">
<svg version="1.0" xmlns="http://www.w3.org/2000/svg"
 width="143.000000pt" height="132.000000pt" viewBox="0 0 143.000000 132.000000"
 preserveAspectRatio="xMidYMid meet">
<metadata>
Created by potrace 1.16, written by Peter Selinger 2001-2019
</metadata>
<g transform="translate(0.000000,132.000000) scale(0.100000,-0.100000)"
fill="#000000" stroke="none">
<path d="M580 1314 c-104 -20 -237 -77 -314 -136 -117 -88 -220 -240 -251
-369 -19 -82 -19 -216 0 -298 65 -273 337 -493 633 -509 l92 -5 0 81 c0 58 -6
97 -21 136 -20 54 -81 154 -103 168 -6 4 -60 7 -121 6 -150 -2 -358 42 -339
73 3 5 0 16 -6 24 -10 12 -10 18 -1 29 10 11 7 17 -10 30 -13 8 -20 19 -16 22
4 4 3 12 -3 19 -5 6 -7 28 -3 47 4 28 11 38 30 43 13 3 28 3 33 0 6 -4 10 1
10 9 0 22 22 20 54 -5 22 -17 27 -18 32 -5 4 10 17 14 40 13 35 -3 89 -44 121
-94 24 -36 25 -21 2 27 -11 23 -17 45 -12 49 4 3 8 20 8 36 0 25 4 30 25 31
14 0 32 4 39 9 10 6 21 0 37 -18 23 -27 23 -27 34 -6 14 25 17 21 -50 50 -70
29 -142 77 -134 90 3 5 -2 21 -10 34 -17 25 -12 30 23 26 7 -2 10 2 6 8 -11
19 4 32 25 21 27 -15 33 24 9 63 -23 38 -25 67 -4 67 11 0 12 6 6 23 -10 27
-4 47 14 47 15 0 25 22 25 56 0 32 33 32 65 0 22 -22 24 -22 28 -5 8 29 24 23
37 -13 10 -29 12 -31 21 -15 13 23 36 22 44 -3 4 -13 14 -19 28 -17 21 2 22
-2 27 -103 5 -97 6 -101 13 -55 14 83 27 117 43 111 9 -3 19 4 26 19 6 13 15
22 20 19 4 -3 20 4 34 15 33 26 44 26 44 1 0 -11 5 -20 10 -20 6 0 10 -15 10
-34 0 -26 5 -35 21 -39 17 -5 19 -10 13 -41 -5 -29 -3 -36 10 -36 18 0 20 -13
6 -40 -7 -13 -6 -19 5 -24 31 -11 -6 -70 -109 -169 l-101 -98 2 -164 c2 -159
12 -225 27 -178 4 11 31 54 61 94 33 45 53 80 49 89 -3 8 -8 56 -11 105 l-5
90 27 12 c14 6 32 10 38 7 7 -2 22 11 34 30 19 30 88 76 113 76 6 0 10 -11 10
-25 0 -18 4 -23 15 -19 8 4 15 1 15 -6 0 -9 4 -9 13 -2 20 17 90 37 115 34 18
-3 23 -9 19 -22 -3 -11 -1 -20 4 -22 5 -2 2 -21 -6 -43 -8 -22 -14 -50 -15
-62 0 -13 -9 -28 -19 -35 -21 -13 -17 -40 5 -31 22 8 17 -23 -8 -51 -23 -25
-121 -68 -188 -82 -19 -4 -56 -6 -82 -5 -45 2 -48 1 -86 -48 -82 -104 -112
-205 -104 -349 l3 -54 42 7 c192 31 379 150 485 309 74 111 97 193 97 351 0
115 -3 138 -26 202 -33 91 -105 198 -172 259 -61 55 -149 114 -172 114 -8 0
-15 4 -15 9 0 4 -37 21 -82 36 -72 24 -101 28 -218 31 -74 1 -146 0 -160 -2z"/>
<path d="M599 718 c5 -13 14 -22 20 -20 23 5 35 -55 35 -173 l1 -120 43 -59
c26 -37 42 -52 42 -41 0 11 -5 82 -11 159 -10 130 -13 145 -41 189 -26 41 -75
87 -92 87 -3 0 -1 -10 3 -22z"/>
</g>
</svg>
