<?xml version="1.0" standalone="no"?>
<!DOCTYPE svg PUBLIC "-//W3C//DTD SVG 20010904//EN"
 "http://www.w3.org/TR/2001/REC-SVG-20010904/DTD/svg10.dtd">
<svg version="1.0" xmlns="http://www.w3.org/2000/svg"
 width="840.000000pt" height="570.000000pt" viewBox="0 0 840.000000 570.000000"
 preserveAspectRatio="xMidYMid meet">
<metadata>
Created by potrace 1.16, written by Peter Selinger 2001-2019
</metadata>
<g transform="translate(0.000000,570.000000) scale(0.100000,-0.100000)"
fill="#000000" stroke="none">
<path d="M3955 5280 c-845 -86 -1594 -606 -1965 -1364 -86 -176 -130 -297
-175 -473 -47 -188 -65 -317 -72 -518 -29 -847 380 -1638 1097 -2117 144 -96
415 -227 585 -283 949 -312 1993 -24 2641 728 246 286 436 651 523 1007 42
173 60 308 68 495 35 904 -435 1750 -1228 2208 -261 150 -560 255 -869 302
-125 19 -475 28 -605 15z m600 -249 c283 -49 541 -141 770 -276 92 -54 251
-170 328 -239 l38 -34 -327 -321 c-180 -176 -326 -323 -323 -325 15 -15 207
-57 238 -52 30 5 75 45 301 271 l265 265 52 -52 c338 -348 555 -971 530 -1518
-27 -562 -249 -1062 -652 -1465 -442 -442 -1017 -671 -1635 -651 -510 16 -970
187 -1354 505 -36 30 -66 59 -66 64 0 5 101 108 225 229 124 122 230 229 236
239 8 16 -16 181 -38 259 -3 10 -106 -89 -293 -280 l-290 -295 -40 45 c-281
313 -468 725 -532 1175 -19 134 -16 455 6 595 74 475 289 898 631 1236 372
368 827 587 1340 644 134 15 454 4 590 -19z"/>
<path d="M4118 4589 c-74 -79 -138 -192 -169 -304 -34 -117 -32 -311 4 -447
33 -125 82 -246 141 -344 77 -128 68 -122 120 -79 136 111 235 299 256 486 27
241 -66 511 -243 704 l-46 50 -63 -66z"/>
<path d="M3272 3568 c6 -127 31 -210 95 -320 47 -81 166 -204 258 -268 138
-95 353 -184 499 -205 l49 -8 -6 129 c-5 144 -25 224 -83 334 -122 233 -385
403 -679 439 -49 6 -101 11 -114 11 l-24 0 5 -112z"/>
<path d="M4980 3665 c-113 -18 -264 -73 -356 -130 -244 -152 -374 -378 -375
-653 -1 -57 2 -106 5 -109 9 -9 123 17 231 54 403 139 646 414 663 751 l5 102
-44 -1 c-24 -1 -82 -7 -129 -14z"/>
<path d="M3270 2773 c0 -186 66 -338 208 -486 150 -154 328 -254 560 -313 141
-36 132 -41 132 71 0 219 -72 397 -222 547 -148 148 -364 243 -600 263 l-78 7
0 -89z"/>
<path d="M5045 2854 c-144 -19 -246 -49 -367 -111 -271 -139 -428 -387 -429
-681 0 -57 2 -106 5 -109 9 -9 123 16 221 49 188 63 327 148 455 277 146 148
211 293 214 476 l1 100 -35 1 c-19 1 -48 0 -65 -2z"/>
<path d="M3272 1958 c4 -87 11 -130 30 -186 97 -274 376 -497 736 -588 147
-37 136 -46 129 104 -5 142 -25 222 -83 332 -128 245 -415 419 -733 444 l-84
7 5 -113z"/>
<path d="M5015 2059 c-233 -28 -462 -148 -599 -316 -123 -148 -173 -308 -167
-537 l1 -48 47 7 c138 20 355 108 484 196 234 158 377 405 367 634 l-3 70 -30
1 c-16 1 -61 -2 -100 -7z"/>
</g>
</svg>
