<?xml version="1.0" standalone="no"?>
<!DOCTYPE svg PUBLIC "-//W3C//DTD SVG 20010904//EN"
 "http://www.w3.org/TR/2001/REC-SVG-20010904/DTD/svg10.dtd">
<svg version="1.0" xmlns="http://www.w3.org/2000/svg"
 width="920.000000pt" height="512.000000pt" viewBox="0 0 920.000000 512.000000"
 preserveAspectRatio="xMidYMid meet">
<metadata>
Created by potrace 1.16, written by Peter Selinger 2001-2019
</metadata>
<g transform="translate(0.000000,512.000000) scale(0.100000,-0.100000)"
fill="#000000" stroke="none">
<path d="M4427 4505 c-21 -7 -62 -33 -90 -57 -271 -226 -1191 -1009 -1224
-1041 -80 -77 -79 -134 3 -182 81 -48 95 -95 40 -143 -67 -59 -206 -78 -330
-46 -73 19 -124 14 -168 -17 -18 -13 -126 -102 -241 -197 -265 -222 -343 -320
-367 -468 -14 -81 -13 -513 1 -552 15 -45 51 -64 125 -66 101 -3 156 -56 156
-146 0 -86 -51 -137 -147 -146 -32 -3 -72 -12 -88 -20 -53 -28 -57 -53 -57
-396 0 -293 1 -314 20 -354 24 -48 67 -74 124 -74 20 0 474 74 1009 164 534
91 1163 197 1397 236 234 39 607 102 830 140 223 38 677 114 1010 170 343 58
620 109 639 118 19 9 44 30 55 45 20 28 21 43 26 560 9 887 6 1174 -12 1228
-23 67 -45 107 -88 164 -46 60 -292 288 -405 376 -428 330 -919 551 -1466 659
-266 52 -665 76 -752 45z m509 -170 c589 -74 1118 -288 1579 -639 142 -107
407 -349 394 -359 -2 -2 -337 -58 -745 -125 l-740 -123 -65 30 c-182 85 -445
40 -546 -93 l-33 -42 -127 -22 c-484 -83 -2246 -372 -2249 -369 -2 2 73 68
167 146 166 139 172 143 207 137 21 -4 87 -9 148 -12 88 -5 124 -3 170 11 82
24 147 59 189 102 92 94 98 199 19 302 -19 24 -34 47 -33 50 0 3 30 31 67 62
37 30 306 258 597 506 292 247 537 453 545 456 24 11 324 -1 456 -18z m2057
-1182 c6 -28 -3 -1575 -9 -1582 -3 -3 -2329 -397 -4204 -712 -294 -49 -545
-92 -557 -94 l-23 -5 0 259 0 259 50 11 c70 15 120 43 163 90 46 51 62 83 77
153 34 169 -79 331 -252 363 l-38 7 0 223 c0 197 2 225 18 244 19 24 -82 6
1646 296 478 80 871 143 874 140 3 -3 9 -30 13 -61 16 -116 108 -241 219 -296
253 -125 556 27 601 301 9 58 3 135 -16 182 -5 13 94 32 687 131 381 64 705
116 719 117 21 1 28 -4 32 -26z m-1685 -188 c85 -46 118 -111 101 -201 -41
-219 -337 -272 -464 -84 -28 41 -30 52 -30 132 0 78 2 89 25 113 51 55 119 75
235 71 66 -2 89 -7 133 -31z"/>
<path d="M4298 3855 c-105 -29 -198 -97 -238 -175 -48 -95 -31 -203 46 -289
146 -162 454 -172 620 -19 218 200 33 500 -306 497 -41 0 -96 -7 -122 -14z
m247 -172 c48 -17 83 -48 100 -88 36 -82 -74 -165 -219 -165 -122 0 -226 61
-226 132 0 111 187 177 345 121z"/>
<path d="M3423 2455 c-215 -47 -364 -257 -333 -472 23 -163 151 -307 315 -353
65 -19 186 -17 252 3 161 49 278 184 304 350 34 219 -131 440 -356 477 -76 12
-105 12 -182 -5z m232 -182 c165 -86 194 -307 55 -426 -139 -118 -361 -74
-436 87 -64 136 7 298 153 352 55 20 177 13 228 -13z"/>
</g>
</svg>
